<svg xmlns="http://www.w3.org/2000/svg" class="footer-logo" viewBox="0 0 249 40" width="249" height="40"><defs><linearGradient x1="-11.66%" y1="-13.392%" x2="99.85%" y2="6.921%" id="a"><stop stop-color="#3395C4" offset="0%"/><stop stop-color="#3BE3D9" offset="100%"/></linearGradient></defs><g fill="none" fill-rule="evenodd"><path d="M9.531 16.471a.372.372 0 01-.368-.382C9.407 10.283 14.16 5.64 19.977 5.64c2.655 0 5.09.967 6.973 2.573a.182.182 0 00.283-.062C29.423 3.452 34.16.198 39.643.198c6.729 0 12.33 4.903 13.485 11.356a.184.184 0 00.147.148c6.399 1.164 11.26 6.815 11.26 13.602 0 7.628-6.14 13.82-13.704 13.82-.145 0-.288-.002-.428-.006v.006H11.188a11.122 11.122 0 01-8.314-3.74.093.093 0 01-.017-.097.09.09 0 01.083-.054h4.477a.764.764 0 00.385-.105l7.946-4.626a.723.723 0 01.364-.1l4.578.003c.238 0 .46.124.591.326a2.388 2.388 0 004.4-1.322c0-1.333-1.071-2.417-2.394-2.417-.839 0-1.578.438-2.002 1.099a.71.71 0 01-.595.326H.368c-.2 0-.365-.16-.368-.361v-.217c0-.942.114-1.856.33-2.732a.366.366 0 01.354-.276c10.13 0 30.426 0 33.568.006.24 0 .463.122.593.324a2.388 2.388 0 004.4-1.322c0-1.333-1.074-2.418-2.396-2.418-.839 0-1.576.439-2 1.1a.71.71 0 01-.599.328H1.452a.186.186 0 01-.161-.27 11.336 11.336 0 013.544-4.027.543.543 0 01.31-.097l12.462.004c.238 0 .461.124.591.324a2.39 2.39 0 004.401-1.322 2.406 2.406 0 00-2.394-2.416c-.84 0-1.577.436-2 1.1a.71.71 0 01-.6.326H9.531zM.316 30.508a.093.093 0 01.091-.107h11.24a.09.09 0 01.086.07.093.093 0 01-.04.103L7.181 33.2a.362.362 0 01-.184.05h-3.23a3.558 3.558 0 01-3.452-2.742z" fill="url(#a)"/><g class="type" fill="#424242"><path d="M121.256 31.566c-2.128 2.062-4.708 3.095-7.748 3.095-3.037 0-5.611-1.033-7.723-3.095-2.114-2.066-3.17-4.603-3.17-7.618 0-3.016 1.056-5.553 3.17-7.617 2.112-2.067 4.688-3.098 7.725-3.098 3.038 0 5.62 1.034 7.746 3.098 2.126 2.064 3.188 4.603 3.188 7.617 0 3.015-1.062 5.554-3.188 7.618zm-7.582-15.165c4.235 0 7.673 3.382 7.673 7.547 0 4.164-3.438 7.546-7.673 7.546-4.236 0-7.672-3.382-7.672-7.546 0-4.165 3.438-7.547 7.672-7.547z"/><path d="M81.475 26.21a.413.413 0 00-.304.13.4.4 0 00-.107.309c.4 4.2 4.227 7.768 10.178 7.768 5.454 0 9.337-3.086 9.337-7.962 0-4.306-2.562-6.825-7.025-8.41l-3.76-1.343c-2.85-1.012-4.211-2.23-4.211-4.669 0-2.397 2.19-3.9 4.998-3.9 2.316 0 4.632 1.177 5.454 3.97a.41.41 0 00.395.294h3.022c.119 0 .232-.05.31-.139a.4.4 0 00.098-.32c-.558-3.636-3.49-7.34-9.197-7.34-5.124 0-8.921 2.842-8.923 7.553v.004c.041 4.062 2.231 6.54 6.772 8.124h.005l4.047 1.463c2.725.975 4.174 2.562 4.174 4.834 0 2.682-2.48 4.308-5.538 4.308-2.669 0-5.76-1.36-6.274-4.332a.407.407 0 00-.403-.34h-3.048v-.001zm55.591-18.12a.4.4 0 01-.128.291.413.413 0 01-.302.112c-3.36-.145-5.039 1.41-5.039 4.67v.206a.4.4 0 00.122.287.413.413 0 00.29.118h4.646c.108 0 .212.042.29.117a.4.4 0 01.121.288v2.611a.4.4 0 01-.122.285.413.413 0 01-.289.118h-4.647a.413.413 0 00-.41.405v16.136a.4.4 0 01-.12.288.413.413 0 01-.29.117h-2.783a.413.413 0 01-.29-.117.4.4 0 01-.121-.285V13.16c0-2.742.78-4.82 2.34-6.231 1.488-1.35 3.602-1.967 6.34-1.856.219.01.392.188.392.405v2.61zm13.281 8.696a.4.4 0 01-.12.285.413.413 0 01-.291.12h-4.688a.413.413 0 00-.29.118.4.4 0 00-.12.285V28.23c0 1.004.2 1.717.6 2.139.4.421 1.014.638 1.843.65.73.013 1.61 0 2.638-.04a.4.4 0 01.426.403v2.396a.407.407 0 01-.362.403c-2.962.343-5.146.076-6.553-.798-1.465-.909-2.197-2.628-2.197-5.153V9.426c0-.18.12-.337.294-.389l2.783-.818a.417.417 0 01.361.064.404.404 0 01.166.324v4.757c0 .107.045.208.122.285a.413.413 0 00.289.118h4.688a.413.413 0 01.411.404v2.614zm34.046 16.277a.64.64 0 01.11.696.66.66 0 01-.6.382h-3.112a.661.661 0 01-.487-.21l-11.575-12.51a.665.665 0 00-.723-.168.647.647 0 00-.421.603v11.639a.64.64 0 01-.192.456.661.661 0 01-.465.19h-2.664a.661.661 0 01-.464-.188.64.64 0 01-.193-.458V5.709a.64.64 0 01.193-.457.663.663 0 01.464-.19h2.664c.174 0 .34.068.465.19a.64.64 0 01.192.457v10.843c0 .264.165.504.415.599a.667.667 0 00.723-.157l11.155-11.727a.662.662 0 01.48-.205h3.09a.66.66 0 01.604.386.638.638 0 01-.12.699l-11.794 12.607a.64.64 0 00-.006.868l12.26 13.44zm6.973-17.357c0 .173.113.33.28.384a.413.413 0 00.461-.145c1.184-1.601 2.95-2.446 5.294-2.535a.413.413 0 01.3.112.394.394 0 01.125.291v2.882a.4.4 0 01-.12.287.415.415 0 01-.289.118c-1.593.002-2.975.467-4.146 1.393-1.271 1.006-1.905 2.622-1.905 4.849v10.39a.408.408 0 01-.411.405h-2.781a.407.407 0 01-.414-.405v-19.56a.41.41 0 01.414-.404h2.78a.41.41 0 01.29.12.4.4 0 01.124.284v1.534h-.002zm17.035-2.412a11.023 11.023 0 018.316 2.126.417.417 0 00.434.044.403.403 0 00.23-.362v-.93a.413.413 0 01.41-.404h2.783c.225 0 .407.18.412.404V33.73a.413.413 0 01-.412.405h-2.783a.413.413 0 01-.41-.405v-.93a.403.403 0 00-.23-.363.417.417 0 00-.434.045 11.017 11.017 0 01-6.688 2.244c-.548 0-1.085-.041-1.61-.115l-.018-.003c-2.407-.243-4.496-1.262-6.263-3.057-2.045-2.079-3.066-4.612-3.066-7.6 0-2.987 1.023-5.52 3.066-7.597 1.767-1.797 3.856-2.816 6.263-3.058v-.002zm1.607 17.949c2.1 0 3.852-.699 5.26-2.097 1.41-1.4 2.112-3.13 2.112-5.195 0-2.064-.702-3.795-2.111-5.194-1.41-1.399-3.162-2.097-5.26-2.097-2.073 0-3.813.698-5.22 2.097-1.409 1.399-2.113 3.13-2.113 5.194s.704 3.796 2.113 5.195c1.407 1.398 3.147 2.097 5.22 2.097zM234.99 8.089c0 .11-.046.215-.126.291a.42.42 0 01-.304.112c-3.358-.145-5.037 1.41-5.037 4.67v.206a.407.407 0 00.41.405h4.646a.403.403 0 01.41.405v2.611a.403.403 0 01-.41.403h-4.645a.413.413 0 00-.291.12.403.403 0 00-.12.285v16.136a.413.413 0 01-.411.405h-2.783a.413.413 0 01-.412-.402V13.16c0-2.742.781-4.82 2.341-6.231 1.49-1.35 3.604-1.967 6.34-1.856.218.01.392.188.392.405v2.61zm13.285 8.696c0 .107-.044.21-.12.285a.417.417 0 01-.291.12h-4.686a.403.403 0 00-.411.403v10.636c0 1.004.198 1.717.599 2.139.4.421 1.014.638 1.843.65.729.013 1.61 0 2.638-.04a.415.415 0 01.302.11.4.4 0 01.126.292v2.397a.407.407 0 01-.364.403c-2.963.343-5.147.076-6.554-.798-1.462-.909-2.196-2.628-2.196-5.153V9.426c0-.18.12-.337.294-.389l2.783-.818a.413.413 0 01.529.388v4.757c0 .107.043.208.12.285a.413.413 0 00.29.118h4.687c.11 0 .212.043.291.12a.4.4 0 01.12.284v2.614z" fill-rule="nonzero"/></g></g></svg>